#define noname_width 212
#define noname_height 211
static char noname_bits[] = {
  0x00,0x00,0x00,0x00,0x00,0x00,0x00,0x00,0x00,0x00,0x00,0x00,0x00,0x00,0x00,
  0x00,0x00,0x00,0x00,0x00,0x00,0x00,0x00,0x00,0x00,0x00,0x00,0x00,0x00,0x00,
  0x00,0x00,0x00,0x00,0x00,0x00,0x00,0x00,0x00,0x00,0x00,0x00,0x00,0x00,0x00,
  0x00,0x00,0x00,0x00,0x00,0x00,0x00,0x00,0x00,0x00,0x00,0x00,0x00,0x00,0x00,
  0x00,0x00,0x00,0x00,0x00,0x00,0x00,0x00,0x00,0x00,0x00,0x00,0x00,0x00,0x00,
  0x00,0x00,0x00,0x00,0x00,0x00,0x00,0x00,0x00,0x00,0x00,0x00,0x00,0x00,0x00,
  0x00,0x00,0x00,0x00,0x00,0x00,0x00,0x00,0x00,0x00,0x00,0x00,0x00,0x00,0x00,
  0x00,0x00,0x00,0x00,0x00,0x00,0x00,0x00,0x00,0x00,0x00,0x00,0x00,0x00,0x00,
  0x00,0x00,0x00,0x00,0x00,0x00,0x00,0x00,0x00,0x00,0x00,0x00,0x00,0x00,0x00,
  0x00,0x00,0x00,0x00,0x00,0x00,0x00,0x00,0x00,0x00,0x00,0x00,0x00,0x04,0x00,
  0x00,0x00,0x00,0x00,0x00,0x00,0x00,0x00,0x00,0x00,0x00,0x00,0x00,0x00,0x00,
  0x00,0x00,0x00,0x00,0x00,0x00,0x00,0x00,0x00,0x00,0x04,0x00,0x00,0x00,0x00,
  0x00,0x00,0x00,0x00,0x00,0x00,0x00,0x00,0x00,0x00,0x00,0x00,0x00,0x00,0x00,
  0x00,0x00,0x00,0x00,0x00,0x00,0x00,0x04,0x00,0x00,0x00,0x00,0x00,0x00,0x00,
  0x00,0x00,0x00,0x00,0x00,0x00,0x00,0x00,0x00,0x00,0x00,0x00,0x00,0x00,0x00,
  0x00,0x00,0x00,0x00,0x04,0x00,0x00,0x00,0x00,0x00,0x00,0x00,0x00,0x00,0x00,
  0x00,0x00,0x00,0x00,0x00,0x00,0x00,0x00,0x00,0x00,0x00,0x00,0x00,0x00,0x00,
  0xc0,0x3f,0x00,0x00,0x00,0x00,0x00,0x00,0x00,0x00,0x00,0x00,0x00,0x00,0x00,
  0x00,0x00,0x00,0x00,0x00,0x00,0x00,0x00,0x00,0x00,0x00,0xf0,0x7f,0xe4,0xff,
  0x00,0x00,0x00,0x00,0x00,0x00,0x00,0x00,0x00,0x00,0x00,0x00,0x00,0x00,0x00,
  0x00,0x00,0x00,0x00,0x00,0x00,0x00,0xc0,0x0f,0x00,0x04,0x00,0x3f,0x00,0x00,
  0x00,0x00,0x00,0x00,0x00,0x00,0x00,0x00,0x00,0x00,0x00,0x00,0x00,0x00,0x00,
  0x00,0x00,0x00,0x00,0x7c,0x06,0x00,0x04,0x00,0xe6,0x03,0x00,0x00,0x00,0x00,
  0x00,0x00,0x00,0x00,0x00,0x00,0x00,0x00,0x00,0x00,0x00,0x00,0x00,0x00,0x00,
  0x80,0x83,0x01,0x00,0x04,0x00,0x18,0x1c,0x00,0x00,0x00,0x00,0x00,0x00,0x00,
  0x00,0x00,0x00,0x00,0x00,0x00,0x00,0x00,0x00,0x00,0x00,0x00,0x78,0x40,0x00,
  0x00,0x04,0x00,0x20,0xe0,0x01,0x00,0x00,0x00,0x00,0x00,0x00,0x00,0x00,0x00,
  0x00,0x00,0x00,0x00,0x00,0x00,0x00,0x00,0x00,0x0e,0x30,0x00,0x00,0x04,0x00,
  0xc0,0x00,0x07,0x00,0x00,0x00,0x00,0x00,0x00,0x00,0x00,0x00,0x00,0x00,0x00,
  0x00,0x00,0x00,0x00,0x00,0xc0,0x01,0x08,0x00,0x00,0x04,0x00,0x00,0x01,0x38,
  0x00,0x00,0x00,0x00,0x00,0x00,0x00,0x00,0x00,0x00,0x00,0x00,0x00,0x00,0x00,
  0x00,0x00,0x38,0x00,0x06,0x00,0x00,0x04,0x00,0x00,0x06,0xe0,0x00,0x00,0x00,
  0x00,0x00,0x00,0x00,0x00,0x00,0x00,0x00,0x00,0x00,0x00,0x00,0x00,0x00,0x4c,
  0x80,0x01,0x00,0x00,0x04,0x00,0x00,0x18,0x20,0x03,0x00,0x00,0x00,0x00,0x00,
  0x00,0x00,0x00,0x00,0x00,0x00,0x00,0x00,0x00,0x00,0x00,0x43,0xc0,0x00,0x00,
  0x00,0x04,0x00,0x00,0x30,0x20,0x0c,0x00,0x00,0x00,0x00,0x00,0x00,0x00,0x00,
  0x00,0x00,0x00,0x00,0x00,0x00,0x00,0xe0,0x40,0x20,0x00,0x00,0x00,0x04,0x00,
  0x00,0x40,0x20,0x30,0x00,0x00,0x00,0x00,0x00,0x00,0x00,0x00,0x00,0x00,0x00,
  0x00,0x00,0x00,0x00,0x30,0x80,0x10,0x00,0x00,0x00,0x04,0x00,0x00,0x80,0x10,
  0xc0,0x00,0x00,0x00,0x00,0x00,0x00,0x00,0x00,0x00,0x00,0x00,0x00,0x00,0x00,
  0x00,0x0e,0x80,0x0c,0x00,0x00,0x00,0x04,0x00,0x00,0x00,0x13,0x00,0x03,0x00,
  0x00,0x00,0x00,0x00,0x00,0x00,0x00,0x00,0x00,0x00,0x00,0x00,0x00,0x03,0x00,
  0x03,0x00,0x00,0x00,0x04,0x00,0x00,0x00,0x0c,0x00,0x0c,0x00,0x00,0x00,0x00,
  0x00,0x00,0x00,0x00,0x00,0x00,0x00,0x00,0x00,0x80,0x00,0xfc,0xfe,0xff,0x0e,
  0x00,0x04,0x00,0xfe,0xff,0xfe,0x03,0x18,0x00,0x00,0x00,0x00,0x00,0x00,0x00,
  0x00,0x00,0x00,0x00,0x00,0x00,0x60,0xe0,0x83,0x02,0x00,0xf0,0x01,0x04,0xf8,
  0x00,0x00,0x14,0x7c,0x60,0x00,0x00,0x00,0x00,0x00,0x00,0x00,0x00,0x00,0x00,
  0x00,0x00,0x00,0x30,0x1f,0x40,0x02,0x00,0x00,0x1e,0x84,0x07,0x00,0x00,0x24,
  0x80,0xcf,0x00,0x00,0x00,0x00,0x00,0x00,0x00,0x00,0x00,0x00,0x00,0x00,0x00,
  0xfc,0x00,0x30,0x02,0x00,0x00,0xe0,0x7d,0x00,0x00,0x00,0xc4,0x00,0xf0,0x03,
  0x00,0x00,0x00,0x00,0x00,0x00,0x00,0x00,0x00,0x00,0x00,0x00,0x0e,0x00,0x10,
  0x04,0x00,0x00,0x00,0x0f,0x00,0x00,0x00,0x82,0x00,0x00,0x07,0x00,0x00,0x00,
  0x00,0x00,0x00,0x00,0x00,0x00,0x00,0x00,0x80,0x01,0x00,0x08,0x04,0x00,0x00,
  0xc0,0x3d,0x00,0x00,0x00,0x02,0x01,0x00,0x08,0x00,0x00,0x00,0x00,0x00,0x00,
  0x00,0x00,0x00,0x00,0x00,0xc0,0x00,0x00,0x04,0x08,0x00,0x00,0x38,0xc4,0x01,
  0x00,0x00,0x01,0x02,0x00,0x30,0x00,0x00,0x00,0x00,0x00,0x00,0x00,0x00,0x00,
  0x00,0x00,0x60,0x00,0x00,0x02,0x08,0x00,0x00,0x06,0x04,0x06,0x00,0x00,0x01,
  0x04,0x00,0x60,0x00,0x00,0x00,0x00,0x00,0x00,0x00,0x00,0x00,0x00,0x00,0x30,
  0x00,0x00,0x01,0x08,0x00,0x80,0x01,0x04,0x18,0x00,0x00,0x01,0x08,0x00,0xc0,
  0x00,0x00,0x00,0x00,0x00,0x00,0x00,0x00,0x00,0x00,0x00,0x08,0x00,0x80,0x00,
  0x10,0x00,0x60,0x00,0x04,0x60,0x00,0x80,0x00,0x10,0x00,0x00,0x01,0x00,0x00,
  0x00,0x00,0x00,0x00,0x00,0x00,0x00,0x00,0x04,0x00,0x40,0x00,0x10,0x00,0x18,
  0x00,0x04,0x80,0x01,0x80,0x00,0x20,0x00,0x00,0x02,0x00,0x00,0x00,0x00,0x00,
  0x00,0x00,0x00,0x00,0x00,0x02,0x00,0x20,0x00,0x20,0x00,0x04,0x00,0x04,0x00,
  0x02,0x40,0x00,0x40,0x00,0x00,0x04,0x00,0x00,0x00,0x00,0x00,0x00,0x00,0x00,
  0x00,0x00,0x01,0x00,0x10,0x00,0x20,0x00,0x03,0x00,0x04,0x00,0x0c,0x40,0x00,
  0x80,0x00,0x00,0x18,0x00,0x00,0x00,0x00,0x00,0x00,0x00,0x00,0x00,0x80,0x00,
  0x00,0x10,0x00,0x40,0x80,0x00,0x00,0x04,0x00,0x10,0x20,0x00,0x80,0x00,0x00,
  0x10,0x00,0x00,0x00,0x00,0x00,0x00,0x00,0x00,0x00,0xc0,0x00,0x00,0x08,0x00,
  0x40,0x60,0x00,0x00,0x04,0x00,0x60,0x20,0x00,0x00,0x01,0x00,0x30,0x00,0x00,
  0x00,0x00,0x00,0x00,0x00,0x00,0x00,0x20,0x01,0x00,0x04,0x00,0x40,0x10,0x00,
  0x00,0x04,0x00,0x80,0x20,0x00,0x00,0x02,0x00,0x48,0x00,0x00,0x00,0x00,0x00,
  0x00,0x00,0x00,0x00,0x10,0x02,0x00,0x04,0x00,0x80,0x08,0x00,0x00,0x04,0x00,
  0x00,0x11,0x00,0x00,0x02,0x00,0x84,0x00,0x00,0x00,0x00,0x00,0x00,0x00,0x00,
  0x00,0x08,0x04,0x00,0x02,0x00,0x80,0x06,0x00,0x00,0x04,0x00,0x00,0x16,0x00,
  0x00,0x04,0x00,0x02,0x01,0x00,0x00,0x00,0x00,0x00,0x00,0x00,0x00,0x04,0x08,
  0x00,0x01,0x00,0xc0,0xff,0x0f,0x00,0x04,0x00,0xff,0x3f,0x00,0x00,0x08,0x00,
  0x01,0x02,0x00,0x00,0x00,0x00,0x00,0x00,0x00,0x00,0x02,0x10,0x00,0x01,0x00,
  0xff,0x01,0xf0,0x03,0x04,0xfc,0x00,0xf8,0x0f,0x00,0x08,0x80,0x00,0x04,0x00,
  0x00,0x00,0x00,0x00,0x00,0x00,0x00,0x03,0x20,0x80,0x00,0xf8,0x40,0x01,0x00,
  0x7c,0xe4,0x03,0x00,0x28,0xf0,0x01,0x10,0x40,0x00,0x0c,0x00,0x00,0x00,0x00,
  0x00,0x00,0x00,0x80,0x01,0x40,0x40,0x00,0x07,0x20,0x02,0x00,0x80,0x1f,0x00,
  0x00,0x44,0x00,0x0e,0x20,0x20,0x00,0x18,0x00,0x00,0x00,0x00,0x00,0x00,0x00,
  0x80,0x00,0x80,0x40,0xe0,0x00,0x10,0x02,0x00,0x80,0x1f,0x00,0x00,0x84,0x00,
  0x70,0x20,0x10,0x00,0x30,0x00,0x00,0x00,0x00,0x00,0x00,0x00,0x40,0x00,0x00,
  0x21,0x1c,0x00,0x08,0x04,0x00,0x60,0x64,0x00,0x00,0x02,0x01,0x80,0x43,0x08,
  0x00,0x20,0x00,0x00,0x00,0x00,0x00,0x00,0x00,0x20,0x00,0x00,0x22,0x03,0x00,
  0x04,0x04,0x00,0x18,0x84,0x01,0x00,0x02,0x02,0x00,0x4c,0x04,0x00,0x40,0x00,
  0x00,0x00,0x00,0x00,0x00,0x00,0x30,0x00,0x00,0xd4,0x00,0x00,0x02,0x08,0x00,
  0x06,0x04,0x06,0x00,0x01,0x04,0x00,0xb0,0x02,0x00,0x40,0x00,0x00,0x00,0x00,
  0x00,0x00,0x00,0x30,0x00,0x00,0x38,0x00,0x00,0x01,0x08,0x80,0x01,0x04,0x18,
  0x00,0x01,0x08,0x00,0xc0,0x01,0x00,0xc0,0x00,0x00,0x00,0x00,0x00,0x00,0x00,
  0x18,0x00,0x00,0x1c,0x00,0x00,0x01,0x08,0x60,0x00,0x04,0x60,0x00,0x01,0x08,
  0x00,0x80,0x03,0x00,0x80,0x01,0x00,0x00,0x00,0x00,0x00,0x00,0x1c,0x00,0x00,
  0x2b,0x00,0x80,0x00,0x10,0x10,0x00,0x04,0x80,0x80,0x00,0x10,0x00,0x40,0x0d,
  0x00,0x80,0x03,0x00,0x00,0x00,0x00,0x00,0x00,0x14,0x00,0xc0,0x44,0x00,0x40,
  0x00,0x10,0x0c,0x00,0x04,0x00,0x83,0x00,0x20,0x00,0x20,0x32,0x00,0x80,0x02,
  0x00,0x00,0x00,0x00,0x00,0x00,0x12,0x00,0x20,0x84,0x00,0x20,0x00,0x20,0x02,
  0x00,0x04,0x00,0x44,0x00,0x40,0x00,0x10,0x42,0x00,0x80,0x04,0x00,0x00,0x00,
  0x00,0x00,0x00,0x0b,0x00,0x18,0x02,0x01,0x20,0x00,0x20,0x01,0x00,0x04,0x00,
  0x48,0x00,0x40,0x00,0x08,0x84,0x01,0x00,0x0d,0x00,0x00,0x00,0x00,0x00,0x00,
  0x08,0x00,0x04,0x02,0x02,0x10,0x00,0xa0,0x00,0x00,0x04,0x00,0x50,0x00,0x80,
  0x00,0x04,0x04,0x02,0x00,0x08,0x00,0x00,0x00,0x00,0x00,0x80,0x08,0x00,0x03,
  0x01,0x04,0x08,0x00,0xff,0xff,0x0f,0x04,0xff,0xff,0x0f,0x00,0x01,0x02,0x08,
  0x0c,0x00,0x11,0x00,0x00,0x00,0x00,0x00,0x80,0x08,0x80,0x00,0x01,0x08,0x08,
  0xf0,0x50,0x00,0xf0,0xf4,0x00,0xa0,0xf0,0x00,0x01,0x01,0x08,0x10,0x00,0x11,
  0x00,0x00,0x00,0x00,0x00,0x40,0x08,0x60,0x00,0x01,0x10,0x04,0x0f,0x88,0x00,
  0x00,0x0f,0x00,0x10,0x01,0x0f,0x82,0x00,0x08,0x60,0x00,0x21,0x00,0x00,0x00,
  0x00,0x00,0x40,0x04,0x10,0x80,0x00,0x20,0xc2,0x00,0x84,0x00,0xc0,0x3d,0x00,
  0x10,0x02,0x30,0x44,0x00,0x10,0x80,0x00,0x62,0x00,0x00,0x00,0x00,0x00,0x20,
  0x04,0x08,0x80,0x00,0x40,0x3a,0x00,0x82,0x00,0x30,0xc4,0x00,0x10,0x04,0xc0,
  0x25,0x00,0x10,0x00,0x01,0x42,0x00,0x00,0x00,0x00,0x00,0x20,0x04,0x04,0x80,
  0x00,0x80,0x07,0x00,0x02,0x01,0x0c,0x04,0x03,0x08,0x04,0x00,0x1e,0x00,0x10,
  0x00,0x02,0x42,0x00,0x00,0x00,0x00,0x00,0x10,0x04,0x02,0x40,0x00,0x80,0x01,
  0x00,0x01,0x01,0x02,0x04,0x04,0x08,0x08,0x00,0x18,0x00,0x20,0x00,0x04,0x82,
  0x00,0x00,0x00,0x00,0x00,0x10,0x04,0x01,0x40,0x00,0xe0,0x02,0x80,0x00,0x82,
  0x01,0x04,0x18,0x04,0x10,0x00,0x74,0x00,0x20,0x00,0x08,0x82,0x01,0x00,0x00,
  0x00,0x00,0x08,0x82,0x00,0x40,0x00,0x90,0x04,0x40,0x00,0x42,0x00,0x04,0x20,
  0x04,0x20,0x00,0x92,0x00,0x20,0x00,0x10,0x04,0x01,0x00,0x00,0x00,0x00,0x08,
  0x42,0x00,0x20,0x00,0x4c,0x08,0x40,0x00,0x34,0x00,0x04,0xc0,0x02,0x20,0x00,
  0x21,0x03,0x40,0x00,0x20,0x04,0x01,0x00,0x00,0x00,0x00,0x04,0x32,0x00,0x20,
  0x00,0x42,0x10,0x20,0x00,0x0c,0x00,0x04,0x00,0x03,0x40,0x80,0x20,0x04,0x40,
  0x00,0xc0,0x04,0x02,0x00,0x00,0x00,0x00,0x04,0x12,0x00,0x20,0x80,0x41,0x20,
  0x10,0xe0,0xff,0x3f,0xc4,0xff,0x7f,0x80,0x40,0x20,0x18,0x40,0x00,0x80,0x04,
  0x02,0x00,0x00,0x00,0x00,0x3a,0x0a,0x00,0x20,0x40,0x20,0x40,0x08,0x1e,0x0a,
  0xc0,0x3f,0x00,0x85,0x07,0x21,0x40,0x20,0x40,0x00,0x00,0xc5,0x05,0x00,0x00,
  0x00,0x00,0xc2,0x06,0x00,0x20,0x20,0x20,0x80,0xc8,0x01,0x09,0x80,0x1f,0x00,
  0x09,0x38,0x11,0x40,0x40,0x40,0x00,0x00,0x36,0x04,0x00,0x00,0x00,0x00,0x03,
  0x03,0x00,0x10,0x18,0x10,0x00,0x35,0x80,0x10,0x60,0x64,0x80,0x10,0xc0,0x0a,
  0x80,0x80,0x81,0x00,0x00,0x0c,0x0c,0x00,0x00,0x00,0x00,0x01,0x1e,0x00,0x10,
  0x04,0x10,0x00,0x0e,0x40,0x10,0x38,0xc4,0x81,0x20,0x00,0x06,0x80,0x00,0x82,
  0x00,0x80,0x0e,0x08,0x00,0x00,0x00,0x00,0x81,0x62,0x00,0x10,0x02,0x10,0x00,
  0x07,0x20,0x10,0x0c,0x04,0x83,0x40,0x00,0x0e,0x80,0x00,0x84,0x00,0x60,0x14,
  0x08,0x00,0x00,0x00,0x00,0x81,0x82,0x03,0x10,0x01,0x10,0xc0,0x0a,0x10,0x20,
  0x02,0x04,0x44,0x80,0x00,0x35,0x80,0x00,0x88,0x00,0x1c,0x14,0x18,0x00,0x00,
  0x00,0x80,0x40,0x02,0x0c,0x90,0x00,0x08,0x20,0x11,0x10,0xa0,0x01,0x04,0x58,
  0x80,0x80,0x48,0x00,0x01,0x90,0x00,0x03,0x24,0x10,0x00,0x00,0x00,0x80,0x20,
  0x02,0x30,0x50,0x00,0x08,0x18,0x21,0x08,0xf8,0x3f,0xc4,0xff,0x01,0x41,0x88,
  0x01,0x01,0xa0,0xc0,0x00,0x44,0x10,0x00,0x00,0x00,0x80,0x10,0x02,0xc0,0x31,
  0x00,0x08,0x8c,0x40,0x84,0x67,0xe0,0x7f,0x60,0x1e,0x22,0x10,0x03,0x01,0xc0,
  0x39,0x00,0x84,0x10,0x00,0x00,0x00,0x40,0x10,0x02,0x00,0x1e,0x00,0x08,0x82,
  0x80,0x74,0x90,0x80,0x1f,0x90,0xe0,0x12,0x10,0x04,0x01,0x80,0x07,0x00,0x84,
  0x20,0x00,0x00,0x00,0x40,0x08,0x02,0x00,0x38,0x00,0x04,0x81,0x00,0x0f,0x88,
  0xe0,0x74,0x10,0x01,0x0f,0x10,0x08,0x02,0xc0,0x01,0x00,0x04,0x21,0x00,0x00,
  0x00,0x40,0x04,0x02,0x00,0xcc,0x00,0xc4,0x40,0x00,0x03,0x84,0x30,0xc4,0x10,
  0x02,0x0c,0x20,0x30,0x02,0x30,0x03,0x00,0x04,0x22,0x00,0x00,0x00,0x20,0x04,
  0x02,0x00,0x0c,0x03,0x24,0x40,0xc0,0x05,0x02,0x0d,0x04,0x0b,0x04,0x3a,0x20,
  0x40,0x02,0x0c,0x03,0x00,0x04,0x42,0x00,0x00,0x00,0x20,0x02,0x02,0x00,0x0a,
  0x1c,0x14,0x40,0x20,0x09,0x03,0x03,0x04,0x0e,0x0c,0x49,0x20,0x80,0x82,0x03,
  0x05,0x00,0x04,0x44,0x00,0x00,0x00,0x20,0x01,0x02,0x00,0x09,0x60,0x0c,0x40,
  0x98,0x10,0xf1,0xff,0xfd,0xff,0x88,0x90,0x21,0x00,0x63,0x00,0x09,0x00,0x04,
  0x48,0x00,0x00,0x00,0x20,0x01,0x02,0x80,0x08,0x80,0x07,0x20,0x84,0xa0,0x8e,
  0x02,0x0f,0x14,0x57,0x10,0x42,0x00,0x1e,0x00,0x11,0x00,0x04,0x48,0x00,0x00,
  0x00,0xb0,0x00,0x02,0x80,0x08,0x00,0x0c,0x20,0x82,0xc0,0x43,0xc2,0x3d,0x24,
  0x3c,0x10,0x44,0x00,0x03,0x00,0x11,0x00,0x04,0xd0,0x00,0x00,0x00,0x50,0x00,
  0x02,0x40,0x08,0x00,0x76,0x20,0x41,0xe0,0x20,0x24,0x44,0x42,0x70,0x20,0x48,
  0xe0,0x06,0x00,0x21,0x00,0x04,0xa0,0x00,0x00,0x00,0x50,0x00,0x02,0x20,0x08,
  0x00,0x85,0xa1,0x40,0x58,0x21,0x1c,0x84,0x43,0xa8,0x21,0x50,0x18,0x0a,0x00,
  0x41,0x00,0x04,0xa0,0x00,0x00,0x00,0x30,0x00,0x02,0x20,0x08,0x80,0x04,0x66,
  0x40,0x4c,0x92,0xff,0xfe,0x9f,0x24,0x23,0x60,0x06,0x12,0x00,0x40,0x00,0x04,
  0xc0,0x00,0x00,0x00,0x30,0x00,0x02,0x10,0x08,0x40,0x04,0x38,0x40,0x22,0x7c,
  0x0a,0x0f,0xe5,0x43,0x24,0xc0,0x01,0x22,0x00,0x81,0x00,0x04,0xc0,0x00,0x00,
  0x00,0x18,0x00,0x02,0x08,0x08,0x40,0x04,0xf0,0x20,0x21,0x0c,0xc2,0x34,0x04,
  0x43,0x48,0xf0,0x00,0x22,0x00,0x01,0x01,0x04,0x80,0x01,0x00,0x00,0x08,0x00,
  0x04,0x08,0x10,0x20,0x04,0x28,0xa7,0x10,0x16,0x21,0x44,0x88,0x86,0x50,0x4e,
  0x01,0x42,0x80,0x00,0x01,0x02,0x00,0x01,0x00,0x00,0x08,0x00,0x04,0x04,0x10,
  0x10,0x04,0x28,0x78,0x90,0xa5,0xff,0xff,0x5f,0x9a,0xe0,0x41,0x01,0x82,0x80,
  0x00,0x02,0x02,0x00,0x01,0x00,0x00,0x08,0x00,0x04,0x04,0x10,0x10,0x04,0x24,
  0x60,0x50,0xc4,0x88,0x1d,0x31,0xa2,0x60,0x40,0x02,0x82,0x80,0x00,0x02,0x02,
  0x00,0x01,0x00,0x00,0x08,0x00,0x04,0x02,0x10,0x08,0x04,0x22,0xa0,0x33,0x62,
  0x44,0x24,0x62,0xc4,0x5c,0x40,0x04,0x02,0x81,0x00,0x04,0x02,0x00,0x01,0x00,
  0x00,0x08,0x00,0x04,0x02,0x10,0x08,0x04,0x22,0x30,0x1c,0x3a,0xfe,0xff,0xc7,
  0x85,0xc3,0x40,0x04,0x02,0x81,0x00,0x04,0x02,0x00,0x01,0x00,0x00,0x08,0x00,
  0x08,0x01,0x10,0x04,0x04,0x21,0x28,0x78,0x2e,0x13,0x84,0x4c,0xe7,0x41,0x41,
  0x08,0x02,0x82,0x00,0x08,0x01,0x00,0x01,0x00,0x00,0x08,0x00,0x08,0x01,0x20,
  0x04,0x84,0x20,0x24,0x94,0xa3,0x09,0x04,0x59,0x9c,0x42,0x42,0x10,0x02,0x42,
  0x00,0x08,0x01,0x00,0x01,0x00,0x00,0x08,0x00,0x88,0x00,0x20,0x02,0x84,0x20,
  0x24,0x14,0x66,0x0d,0x04,0x6b,0x86,0x42,0x42,0x10,0x02,0x44,0x00,0x10,0x01,
  0x00,0x01,0x00,0x00,0x08,0x00,0x88,0x00,0x20,0x02,0x48,0x20,0x22,0x12,0x23,
  0x03,0x04,0x4c,0x8c,0x44,0x44,0x20,0x01,0x44,0x00,0x10,0x01,0x00,0x01,0x00,
  0x00,0x08,0x00,0x90,0x00,0x20,0x01,0x48,0x20,0x22,0x93,0x32,0x01,0x04,0xc8,
  0x94,0x4c,0x44,0x20,0x01,0x48,0x00,0x90,0x00,0x00,0x01,0x00,0x00,0x08,0x00,
  0x50,0x00,0x20,0x01,0x28,0x40,0x41,0x51,0xaa,0x01,0x04,0x58,0xa5,0x28,0x28,
  0x40,0x01,0x48,0x00,0xa0,0x00,0x00,0x01,0x00,0x00,0x04,0x00,0x50,0x00,0xc0,
  0x00,0x28,0xc0,0xc0,0x51,0x6a,0x01,0x04,0x68,0xa5,0x38,0x30,0x40,0x01,0x30,
  0x00,0xa0,0x00,0x00,0x03,0x00,0x00,0x04,0x00,0x50,0x00,0xc0,0x00,0x30,0xc0,
  0xc0,0x50,0x66,0x01,0x04,0x68,0xa6,0x30,0x30,0xc0,0x00,0x30,0x00,0xa0,0x00,
  0x00,0x02,0x00,0xc0,0xfe,0xff,0xfe,0xff,0xfe,0xff,0xfe,0xff,0xfe,0xff,0xfe,
  0xff,0xfe,0xff,0xfe,0xff,0xfe,0xff,0xfe,0xff,0xfe,0xff,0xfe,0xff,0x3e,0x00,
  0x00,0x04,0x00,0x20,0x00,0xc0,0x00,0x10,0x80,0xc0,0x20,0x26,0x01,0x04,0x48,
  0x46,0x30,0x10,0x80,0x00,0x30,0x00,0x40,0x00,0x00,0x02,0x00,0x00,0x04,0x00,
  0x70,0x00,0xc0,0x00,0x30,0xc0,0xc0,0x70,0x66,0x01,0x04,0x68,0xe6,0x30,0x30,
  0xc0,0x00,0x30,0x00,0xe0,0x00,0x00,0x02,0x00,0x00,0x04,0x00,0x50,0x00,0xc0,
  0x00,0x28,0xc0,0xc0,0x50,0x6a,0x01,0x04,0x68,0xa5,0x30,0x30,0x40,0x01,0x30,
  0x00,0xa0,0x00,0x00,0x03,0x00,0x00,0x08,0x00,0x50,0x00,0x20,0x01,0x28,0x40,
  0x41,0x51,0xaa,0x01,0x04,0x58,0xa5,0x28,0x28,0x40,0x01,0x48,0x00,0xa0,0x00,
  0x00,0x01,0x00,0x00,0x08,0x00,0x90,0x00,0x20,0x01,0x48,0x20,0x63,0x91,0x32,
  0x01,0x04,0xc8,0x94,0x68,0x4c,0x20,0x01,0x48,0x00,0x90,0x00,0x00,0x01,0x00,
  0x00,0x08,0x00,0x88,0x00,0x20,0x02,0x48,0x20,0x22,0x12,0x23,0x03,0x04,0x4c,
  0x8c,0x44,0x44,0x20,0x01,0x44,0x00,0x10,0x01,0x00,0x01,0x00,0x00,0x08,0x00,
  0x88,0x00,0x20,0x02,0x84,0x20,0x26,0x14,0x67,0x0d,0x04,0x6b,0x8e,0x42,0x46,
  0x10,0x02,0x44,0x00,0x10,0x01,0x00,0x01,0x00,0x00,0x08,0x00,0x08,0x01,0x20,
  0x04,0x84,0x20,0x24,0x94,0xa3,0x09,0x04,0x59,0x9c,0x42,0x42,0x10,0x02,0x42,
  0x00,0x08,0x01,0x00,0x01,0x00,0x00,0x08,0x00,0x08,0x01,0x10,0x04,0x04,0x21,
  0x28,0x78,0x2e,0x13,0x84,0x4c,0xe7,0x41,0x41,0x08,0x02,0x82,0x00,0x08,0x01,
  0x00,0x01,0x00,0x00,0x08,0x00,0x04,0x02,0x10,0x08,0x04,0x22,0x30,0x1c,0x3a,
  0xfe,0xff,0xc7,0x85,0xc3,0x40,0x04,0x02,0x81,0x00,0x04,0x02,0x00,0x01,0x00,
  0x00,0x08,0x00,0x04,0x02,0x10,0x08,0x04,0x22,0xb0,0x33,0x62,0x44,0x24,0x62,
  0xc4,0xdc,0x40,0x04,0x02,0x81,0x00,0x04,0x02,0x00,0x01,0x00,0x00,0x08,0x00,
  0x04,0x04,0x10,0x10,0x04,0x24,0x60,0x50,0xc4,0x88,0x1d,0x31,0xa2,0x60,0x40,
  0x02,0x82,0x80,0x00,0x02,0x02,0x00,0x01,0x00,0x00,0x08,0x00,0x04,0x04,0x10,
  0x10,0x04,0x28,0x78,0x90,0xa5,0xff,0xff,0x5f,0x9a,0xe0,0x41,0x01,0x82,0x80,
  0x00,0x02,0x02,0x00,0x01,0x00,0x00,0x08,0x00,0x04,0x08,0x10,0x20,0x04,0x28,
  0xa7,0x10,0x16,0x21,0x44,0x88,0x86,0x50,0x4e,0x01,0x42,0x80,0x00,0x01,0x02,
  0x00,0x01,0x00,0x00,0x10,0x00,0x02,0x08,0x08,0x40,0x04,0xf0,0x20,0x21,0x0c,
  0xc3,0x34,0x0c,0x43,0x48,0xf0,0x00,0x22,0x00,0x01,0x01,0x04,0x80,0x00,0x00,
  0x00,0x30,0x00,0x02,0x10,0x08,0x40,0x04,0x38,0x40,0x22,0x7c,0x0a,0x0e,0xe5,
  0x42,0x24,0xc0,0x01,0x22,0x00,0x80,0x00,0x04,0xc0,0x00,0x00,0x00,0x30,0x00,
  0x02,0x20,0x08,0x80,0x04,0x66,0x40,0x6c,0x92,0xff,0xff,0x9f,0x64,0x23,0x60,
  0x06,0x12,0x00,0x41,0x00,0x04,0xc0,0x00,0x00,0x00,0x50,0x00,0x02,0x20,0x08,
  0x00,0x85,0xa1,0x40,0x58,0x21,0x1c,0x84,0x43,0xa8,0x21,0x50,0x18,0x0a,0x00,
  0x41,0x00,0x04,0xa0,0x00,0x00,0x00,0x50,0x00,0x02,0x40,0x08,0x00,0x76,0x20,
  0x41,0xe0,0x20,0x24,0x44,0x42,0x70,0x20,0x48,0xe0,0x06,0x00,0x21,0x00,0x04,
  0xa0,0x00,0x00,0x00,0x90,0x00,0x02,0x80,0x08,0x00,0x0c,0x20,0x82,0xc0,0x43,
  0xc2,0x3d,0x24,0x3c,0x10,0x44,0x00,0x03,0x00,0x11,0x00,0x04,0xd0,0x00,0x00,
  0x00,0x20,0x01,0x02,0x80,0x08,0x80,0x07,0x20,0x84,0xa0,0x8e,0x02,0x0f,0x14,
  0x57,0x10,0x42,0x00,0x1e,0x00,0x11,0x00,0x04,0x48,0x00,0x00,0x00,0x20,0x01,
  0x02,0x00,0x09,0x60,0x0c,0x40,0x98,0x10,0xf1,0xff,0xfd,0xff,0x88,0x90,0x21,
  0x00,0x63,0x00,0x09,0x00,0x04,0x48,0x00,0x00,0x00,0x20,0x02,0x02,0x00,0x0a,
  0x1c,0x14,0x40,0x20,0x09,0x01,0x03,0x04,0x0e,0x08,0x49,0x20,0x80,0x82,0x03,
  0x05,0x00,0x04,0x44,0x00,0x00,0x00,0x20,0x04,0x02,0x00,0x0c,0x03,0x24,0x40,
  0xc0,0x05,0x02,0x0d,0x04,0x0b,0x04,0x3a,0x20,0x40,0x02,0x0c,0x03,0x00,0x04,
  0x62,0x00,0x00,0x00,0x40,0x04,0x02,0x00,0xcc,0x00,0xc4,0x40,0x00,0x03,0x84,
  0x30,0xc4,0x10,0x02,0x0c,0x20,0x30,0x02,0x30,0x03,0x00,0x04,0x22,0x00,0x00,
  0x00,0x40,0x08,0x02,0x00,0x38,0x00,0x04,0x81,0x00,0x0f,0x88,0xe0,0x74,0x10,
  0x01,0x0f,0x10,0x08,0x02,0xc0,0x01,0x00,0x04,0x21,0x00,0x00,0x00,0x40,0x18,
  0x02,0x00,0x1e,0x00,0x08,0x82,0x80,0x74,0x90,0x80,0x1f,0x90,0xe0,0x12,0x10,
  0x04,0x01,0x80,0x07,0x00,0x84,0x21,0x00,0x00,0x00,0x80,0x10,0x02,0xc0,0x31,
  0x00,0x08,0x8c,0x40,0x84,0x67,0xe0,0x7f,0x60,0x1e,0x22,0x10,0x03,0x01,0x40,
  0x39,0x00,0x84,0x10,0x00,0x00,0x00,0x80,0x20,0x02,0x30,0x50,0x00,0x08,0x18,
  0x21,0x08,0xf8,0x3f,0xc4,0xff,0x01,0x41,0x88,0x01,0x01,0xa0,0xc0,0x00,0x44,
  0x10,0x00,0x00,0x00,0x80,0x40,0x02,0x0c,0x90,0x00,0x08,0x20,0x11,0x10,0xa0,
  0x01,0x04,0x58,0x80,0x80,0x48,0x00,0x01,0x90,0x00,0x03,0x24,0x10,0x00,0x00,
  0x00,0x80,0x81,0x82,0x03,0x10,0x01,0x10,0xc0,0x0a,0x10,0x20,0x02,0x04,0x44,
  0x80,0x00,0x35,0x80,0x00,0x88,0x00,0x1c,0x14,0x18,0x00,0x00,0x00,0x00,0x81,
  0x62,0x00,0x10,0x02,0x10,0x00,0x06,0x20,0x10,0x0c,0x04,0x83,0x40,0x00,0x0e,
  0x80,0x00,0x84,0x00,0x60,0x14,0x08,0x00,0x00,0x00,0x00,0x01,0x1f,0x00,0x10,
  0x04,0x10,0x00,0x0e,0x40,0x10,0x38,0xc4,0x81,0x20,0x00,0x07,0x80,0x00,0x82,
  0x00,0x80,0x0f,0x08,0x00,0x00,0x00,0x00,0x02,0x03,0x00,0x10,0x18,0x10,0x00,
  0x35,0x80,0x10,0x60,0x64,0x80,0x10,0xc0,0x0a,0x80,0x80,0x81,0x00,0x00,0x0c,
  0x04,0x00,0x00,0x00,0x00,0xc2,0x06,0x00,0x20,0x20,0x20,0x80,0xc8,0x01,0x09,
  0x80,0x1f,0x00,0x09,0x38,0x11,0x40,0x40,0x40,0x00,0x00,0x36,0x04,0x00,0x00,
  0x00,0x00,0x3a,0x0a,0x00,0x20,0x40,0x20,0x40,0x08,0x1e,0x0a,0xc0,0x3f,0x00,
  0x85,0x07,0x21,0x40,0x20,0x40,0x00,0x00,0xc5,0x05,0x00,0x00,0x00,0x00,0x04,
  0x12,0x00,0x20,0x80,0x41,0x20,0x10,0xe0,0xff,0x3f,0xc4,0xff,0x7f,0x80,0x40,
  0x20,0x18,0x40,0x00,0x80,0x04,0x02,0x00,0x00,0x00,0x00,0x04,0x32,0x00,0x20,
  0x00,0x42,0x10,0x20,0x00,0x0c,0x00,0x04,0x00,0x03,0x40,0x80,0x20,0x04,0x40,
  0x00,0xc0,0x04,0x02,0x00,0x00,0x00,0x00,0x0c,0x42,0x00,0x20,0x00,0x4c,0x08,
  0x60,0x00,0x34,0x00,0x04,0xc0,0x02,0x60,0x00,0x21,0x03,0x40,0x00,0x20,0x04,
  0x01,0x00,0x00,0x00,0x00,0x08,0x82,0x00,0x40,0x00,0x90,0x04,0x40,0x00,0x42,
  0x00,0x04,0x20,0x04,0x20,0x00,0x92,0x00,0x20,0x00,0x10,0x04,0x01,0x00,0x00,
  0x00,0x00,0x10,0x04,0x01,0x40,0x00,0xe0,0x02,0x80,0x00,0x82,0x01,0x04,0x18,
  0x04,0x10,0x00,0x74,0x00,0x20,0x00,0x08,0x82,0x00,0x00,0x00,0x00,0x00,0x10,
  0x04,0x02,0x40,0x00,0x80,0x01,0x00,0x01,0x01,0x02,0x04,0x04,0x08,0x08,0x00,
  0x18,0x00,0x20,0x00,0x04,0x82,0x00,0x00,0x00,0x00,0x00,0x20,0x04,0x04,0x80,
  0x00,0x80,0x07,0x00,0x02,0x01,0x0c,0x04,0x03,0x08,0x04,0x00,0x1e,0x00,0x10,
  0x00,0x02,0x42,0x00,0x00,0x00,0x00,0x00,0x20,0x04,0x08,0x80,0x00,0x40,0x3a,
  0x00,0x82,0x00,0x30,0xc4,0x00,0x10,0x04,0xc0,0x25,0x00,0x10,0x00,0x01,0x42,
  0x00,0x00,0x00,0x00,0x00,0x60,0x04,0x10,0x80,0x00,0x20,0xc2,0x00,0x84,0x00,
  0xc0,0x3d,0x00,0x10,0x02,0x30,0x44,0x00,0x10,0x80,0x00,0x22,0x00,0x00,0x00,
  0x00,0x00,0x40,0x08,0x60,0x00,0x01,0x10,0x04,0x0f,0x88,0x00,0x00,0x0f,0x00,
  0x10,0x01,0x0f,0x82,0x00,0x08,0x60,0x00,0x21,0x00,0x00,0x00,0x00,0x00,0x80,
  0x08,0x80,0x00,0x01,0x08,0x08,0xf0,0x50,0x00,0xf0,0xf4,0x00,0xa0,0xf0,0x00,
  0x01,0x01,0x08,0x10,0x00,0x31,0x00,0x00,0x00,0x00,0x00,0x80,0x08,0x00,0x02,
  0x01,0x04,0x08,0x00,0xff,0xfe,0x0f,0x04,0xff,0xfe,0x0f,0x00,0x01,0x02,0x08,
  0x0c,0x00,0x10,0x00,0x00,0x00,0x00,0x00,0x00,0x09,0x00,0x04,0x02,0x02,0x10,
  0x00,0xa0,0x00,0x00,0x04,0x00,0x50,0x00,0x80,0x00,0x04,0x04,0x02,0x00,0x09,
  0x00,0x00,0x00,0x00,0x00,0x00,0x0b,0x00,0x18,0x02,0x01,0x20,0x00,0x20,0x01,
  0x00,0x04,0x00,0x48,0x00,0x40,0x00,0x08,0x84,0x01,0x00,0x0d,0x00,0x00,0x00,
  0x00,0x00,0x00,0x12,0x00,0x20,0x84,0x00,0x20,0x00,0x20,0x02,0x00,0x04,0x00,
  0x44,0x00,0x40,0x00,0x10,0x42,0x00,0x80,0x04,0x00,0x00,0x00,0x00,0x00,0x00,
  0x14,0x00,0xc0,0x44,0x00,0x40,0x00,0x10,0x0c,0x00,0x04,0x00,0x83,0x00,0x20,
  0x00,0x20,0x32,0x00,0x80,0x02,0x00,0x00,0x00,0x00,0x00,0x00,0x1c,0x00,0x00,
  0x2b,0x00,0x80,0x00,0x10,0x10,0x00,0x04,0x80,0x80,0x00,0x10,0x00,0x40,0x0d,
  0x00,0x80,0x03,0x00,0x00,0x00,0x00,0x00,0x00,0x18,0x00,0x00,0x1c,0x00,0x00,
  0x01,0x08,0x60,0x00,0x04,0x60,0x00,0x01,0x08,0x00,0x80,0x03,0x00,0x80,0x01,
  0x00,0x00,0x00,0x00,0x00,0x00,0x30,0x00,0x00,0x38,0x00,0x00,0x01,0x08,0x80,
  0x01,0x04,0x18,0x00,0x01,0x08,0x00,0xc0,0x01,0x00,0xc0,0x00,0x00,0x00,0x00,
  0x00,0x00,0x00,0x30,0x00,0x00,0xd4,0x00,0x00,0x02,0x08,0x00,0x06,0x04,0x06,
  0x00,0x01,0x04,0x00,0xb0,0x02,0x00,0xc0,0x00,0x00,0x00,0x00,0x00,0x00,0x00,
  0x20,0x00,0x00,0x22,0x03,0x00,0x04,0x04,0x00,0x18,0x84,0x01,0x00,0x02,0x02,
  0x00,0x4c,0x04,0x00,0x40,0x00,0x00,0x00,0x00,0x00,0x00,0x00,0x40,0x00,0x00,
  0x21,0x1c,0x00,0x08,0x04,0x00,0x60,0x64,0x00,0x00,0x02,0x01,0x80,0x43,0x08,
  0x00,0x20,0x00,0x00,0x00,0x00,0x00,0x00,0x00,0xc0,0x00,0x80,0x40,0xe0,0x00,
  0x10,0x02,0x00,0x80,0x1f,0x00,0x00,0x84,0x00,0x70,0x20,0x10,0x00,0x10,0x00,
  0x00,0x00,0x00,0x00,0x00,0x00,0x80,0x01,0x40,0x40,0x00,0x07,0x20,0x02,0x00,
  0x80,0x1f,0x00,0x00,0x44,0x00,0x0e,0x20,0x20,0x00,0x18,0x00,0x00,0x00,0x00,
  0x00,0x00,0x00,0x00,0x03,0x20,0x80,0x00,0xf8,0x40,0x01,0x00,0x7c,0xe4,0x03,
  0x00,0x28,0xf0,0x01,0x10,0x40,0x00,0x0c,0x00,0x00,0x00,0x00,0x00,0x00,0x00,
  0x00,0x02,0x10,0x00,0x01,0x00,0xff,0x01,0xf0,0x03,0x04,0xfc,0x00,0xf8,0x0f,
  0x00,0x08,0x80,0x00,0x04,0x00,0x00,0x00,0x00,0x00,0x00,0x00,0x00,0x04,0x08,
  0x00,0x01,0x00,0x80,0xff,0x0f,0x00,0x04,0x00,0xff,0x1f,0x00,0x00,0x08,0x00,
  0x01,0x02,0x00,0x00,0x00,0x00,0x00,0x00,0x00,0x00,0x08,0x04,0x00,0x02,0x00,
  0x80,0x06,0x00,0x00,0x04,0x00,0x00,0x16,0x00,0x00,0x04,0x00,0x02,0x01,0x00,
  0x00,0x00,0x00,0x00,0x00,0x00,0x00,0x10,0x02,0x00,0x04,0x00,0x80,0x08,0x00,
  0x00,0x04,0x00,0x00,0x11,0x00,0x00,0x02,0x00,0x84,0x00,0x00,0x00,0x00,0x00,
  0x00,0x00,0x00,0x00,0x20,0x01,0x00,0x04,0x00,0x40,0x10,0x00,0x00,0x04,0x00,
  0x80,0x20,0x00,0x00,0x02,0x00,0x48,0x00,0x00,0x00,0x00,0x00,0x00,0x00,0x00,
  0x00,0xc0,0x00,0x00,0x08,0x00,0x40,0x60,0x00,0x00,0x04,0x00,0x60,0x20,0x00,
  0x00,0x01,0x00,0x30,0x00,0x00,0x00,0x00,0x00,0x00,0x00,0x00,0x00,0x80,0x00,
  0x00,0x10,0x00,0x40,0x80,0x00,0x00,0x04,0x00,0x10,0x20,0x00,0x80,0x00,0x00,
  0x10,0x00,0x00,0x00,0x00,0x00,0x00,0x00,0x00,0x00,0x00,0x01,0x00,0x10,0x00,
  0x20,0x00,0x03,0x00,0x04,0x00,0x0c,0x40,0x00,0x80,0x00,0x00,0x08,0x00,0x00,
  0x00,0x00,0x00,0x00,0x00,0x00,0x00,0x00,0x02,0x00,0x20,0x00,0x20,0x00,0x04,
  0x00,0x04,0x00,0x02,0x40,0x00,0x40,0x00,0x00,0x04,0x00,0x00,0x00,0x00,0x00,
  0x00,0x00,0x00,0x00,0x00,0x04,0x00,0x40,0x00,0x10,0x00,0x18,0x00,0x04,0x80,
  0x01,0x80,0x00,0x20,0x00,0x00,0x02,0x00,0x00,0x00,0x00,0x00,0x00,0x00,0x00,
  0x00,0x00,0x08,0x00,0x80,0x00,0x10,0x00,0x60,0x00,0x04,0x60,0x00,0x80,0x00,
  0x10,0x00,0x00,0x01,0x00,0x00,0x00,0x00,0x00,0x00,0x00,0x00,0x00,0x00,0x30,
  0x00,0x00,0x01,0x08,0x00,0x80,0x01,0x04,0x18,0x00,0x00,0x01,0x08,0x00,0xc0,
  0x00,0x00,0x00,0x00,0x00,0x00,0x00,0x00,0x00,0x00,0x00,0x60,0x00,0x00,0x02,
  0x08,0x00,0x00,0x06,0x04,0x06,0x00,0x00,0x01,0x04,0x00,0x60,0x00,0x00,0x00,
  0x00,0x00,0x00,0x00,0x00,0x00,0x00,0x00,0x80,0x00,0x00,0x04,0x08,0x00,0x00,
  0x38,0xc4,0x01,0x00,0x00,0x01,0x02,0x00,0x30,0x00,0x00,0x00,0x00,0x00,0x00,
  0x00,0x00,0x00,0x00,0x00,0x00,0x01,0x00,0x08,0x04,0x00,0x00,0xc0,0x3d,0x00,
  0x00,0x00,0x02,0x01,0x00,0x18,0x00,0x00,0x00,0x00,0x00,0x00,0x00,0x00,0x00,
  0x00,0x00,0x00,0x0e,0x00,0x10,0x04,0x00,0x00,0x00,0x0f,0x00,0x00,0x00,0x82,
  0x00,0x00,0x07,0x00,0x00,0x00,0x00,0x00,0x00,0x00,0x00,0x00,0x00,0x00,0x00,
  0xfc,0x00,0x30,0x02,0x00,0x00,0xe0,0x7d,0x00,0x00,0x00,0xc4,0x00,0xf0,0x01,
  0x00,0x00,0x00,0x00,0x00,0x00,0x00,0x00,0x00,0x00,0x00,0x00,0x30,0x1f,0x40,
  0x02,0x00,0x00,0x1e,0x84,0x07,0x00,0x00,0x24,0x80,0xcf,0x00,0x00,0x00,0x00,
  0x00,0x00,0x00,0x00,0x00,0x00,0x00,0x00,0x00,0x60,0xe0,0x83,0x02,0x00,0xf0,
  0x01,0x04,0xf8,0x00,0x00,0x14,0x7c,0x60,0x00,0x00,0x00,0x00,0x00,0x00,0x00,
  0x00,0x00,0x00,0x00,0x00,0x00,0x80,0x01,0xfc,0xff,0xff,0x0f,0x00,0x04,0x00,
  0xff,0xff,0xff,0x03,0x18,0x00,0x00,0x00,0x00,0x00,0x00,0x00,0x00,0x00,0x00,
  0x00,0x00,0x00,0x00,0x03,0x00,0x03,0x00,0x00,0x00,0x04,0x00,0x00,0x00,0x0c,
  0x00,0x0c,0x00,0x00,0x00,0x00,0x00,0x00,0x00,0x00,0x00,0x00,0x00,0x00,0x00,
  0x00,0x0c,0x80,0x0c,0x00,0x00,0x00,0x04,0x00,0x00,0x00,0x13,0x00,0x03,0x00,
  0x00,0x00,0x00,0x00,0x00,0x00,0x00,0x00,0x00,0x00,0x00,0x00,0x00,0x30,0x80,
  0x10,0x00,0x00,0x00,0x04,0x00,0x00,0x80,0x10,0xc0,0x00,0x00,0x00,0x00,0x00,
  0x00,0x00,0x00,0x00,0x00,0x00,0x00,0x00,0x00,0x00,0xc0,0x40,0x20,0x00,0x00,
  0x00,0x04,0x00,0x00,0x40,0x20,0x30,0x00,0x00,0x00,0x00,0x00,0x00,0x00,0x00,
  0x00,0x00,0x00,0x00,0x00,0x00,0x00,0x00,0x43,0xc0,0x00,0x00,0x00,0x04,0x00,
  0x00,0x30,0x20,0x0c,0x00,0x00,0x00,0x00,0x00,0x00,0x00,0x00,0x00,0x00,0x00,
  0x00,0x00,0x00,0x00,0x00,0x4c,0x80,0x01,0x00,0x00,0x04,0x00,0x00,0x18,0x20,
  0x03,0x00,0x00,0x00,0x00,0x00,0x00,0x00,0x00,0x00,0x00,0x00,0x00,0x00,0x00,
  0x00,0x00,0x30,0x00,0x06,0x00,0x00,0x04,0x00,0x00,0x06,0xc0,0x00,0x00,0x00,
  0x00,0x00,0x00,0x00,0x00,0x00,0x00,0x00,0x00,0x00,0x00,0x00,0x00,0x00,0xc0,
  0x01,0x08,0x00,0x00,0x04,0x00,0x00,0x01,0x38,0x00,0x00,0x00,0x00,0x00,0x00,
  0x00,0x00,0x00,0x00,0x00,0x00,0x00,0x00,0x00,0x00,0x00,0x00,0x0f,0x30,0x00,
  0x00,0x04,0x00,0xc0,0x00,0x07,0x00,0x00,0x00,0x00,0x00,0x00,0x00,0x00,0x00,
  0x00,0x00,0x00,0x00,0x00,0x00,0x00,0x00,0x00,0x78,0x40,0x00,0x00,0x04,0x00,
  0x20,0xe0,0x01,0x00,0x00,0x00,0x00,0x00,0x00,0x00,0x00,0x00,0x00,0x00,0x00,
  0x00,0x00,0x00,0x00,0x00,0x00,0x80,0x83,0x01,0x00,0x04,0x00,0x18,0x1c,0x00,
  0x00,0x00,0x00,0x00,0x00,0x00,0x00,0x00,0x00,0x00,0x00,0x00,0x00,0x00,0x00,
  0x00,0x00,0x00,0x00,0x7c,0x06,0x00,0x04,0x00,0xe6,0x03,0x00,0x00,0x00,0x00,
  0x00,0x00,0x00,0x00,0x00,0x00,0x00,0x00,0x00,0x00,0x00,0x00,0x00,0x00,0x00,
  0x00,0xc0,0x0f,0x00,0x04,0x00,0x3f,0x00,0x00,0x00,0x00,0x00,0x00,0x00,0x00,
  0x00,0x00,0x00,0x00,0x00,0x00,0x00,0x00,0x00,0x00,0x00,0x00,0x00,0x00,0xf0,
  0xff,0xf4,0xff,0x00,0x00,0x00,0x00,0x00,0x00,0x00,0x00,0x00,0x00,0x00,0x00,
  0x00,0x00,0x00,0x00,0x00,0x00,0x00,0x00,0x00,0x00,0x00,0x00,0x80,0x1e,0x00,
  0x00,0x00,0x00,0x00,0x00,0x00,0x00,0x00,0x00,0x00,0x00,0x00,0x00,0x00,0x00,
  0x00,0x00,0x00,0x00,0x00,0x00,0x00,0x00,0x00,0x00,0x04,0x00,0x00,0x00,0x00,
  0x00,0x00,0x00,0x00,0x00,0x00,0x00,0x00,0x00,0x00,0x00,0x00,0x00,0x00,0x00,
  0x00,0x00,0x00,0x00,0x00,0x00,0x00,0x04,0x00,0x00,0x00,0x00,0x00,0x00,0x00,
  0x00,0x00,0x00,0x00,0x00,0x00,0x00,0x00,0x00,0x00,0x00,0x00,0x00,0x00,0x00,
  0x00,0x00,0x00,0x00,0x04,0x00,0x00,0x00,0x00,0x00,0x00,0x00,0x00,0x00,0x00,
  0x00,0x00,0x00,0x00,0x00,0x00,0x00,0x00,0x00,0x00,0x00,0x00,0x00,0x00,0x00,
  0x00,0x04,0x00,0x00,0x00,0x00,0x00,0x00,0x00,0x00,0x00,0x00,0x00,0x00,0x00,
  0x00,0x00,0x00,0x00,0x00,0x00,0x00,0x00,0x00,0x00,0x00,0x00,0x00,0x00,0x00,
  0x00,0x00,0x00,0x00,0x00,0x00,0x00,0x00,0x00,0x00,0x00,0x00,0x00,0x00,0x00,
  0x00,0x00,0x00,0x00,0x00,0x00,0x00,0x00,0x00,0x00,0x00,0x00,0x00,0x00,0x00,
  0x00,0x00,0x00,0x00,0x00,0x00,0x00,0x00,0x00,0x00,0x00,0x00,0x00,0x00,0x00,
  0x00,0x00,0x00,0x00,0x00,0x00,0x00,0x00,0x00,0x00,0x00,0x00,0x00,0x00,0x00,
  0x00,0x00,0x00,0x00,0x00,0x00,0x00,0x00,0x00,0x00,0x00,0x00,0x00,0x00,0x00,
  0x00,0x00,0x00,0x00,0x00,0x00,0x00,0x00,0x00,0x00,0x00,0x00,0x00,0x00,0x00,
  0x00,0x00,0x00,0x00,0x00,0x00,0x00,0x00,0x00,0x00,0x00,0x00,0x00,0x00,0x00,
  0x00,0x00,0x00,0x00,0x00,0x00,0x00,0x00,0x00,0x00,0x00,0x00,0x00,0x00,0x00,
  0x00,0x00,0x00,0x00,0x00,0x00,0x00,0x00,0x00,0x00,0x00,0x00,0x00,0x00,0x00,
  0x00,0x00,0x00,0x00,0x00,0x00,0x00,0x00,0x00,0x00,0x00,0x00,};
